<?xml version="1.0" encoding="utf-8"?>
<!-- Generator: Adobe Illustrator 23.0.1, SVG Export Plug-In . SVG Version: 6.00 Build 0)  -->
<svg version="1.1" xmlns="http://www.w3.org/2000/svg" xmlns:xlink="http://www.w3.org/1999/xlink" x="0px" y="0px"
	 viewBox="0 0 112.54 60" style="enable-background:new 0 0 112.54 60;" xml:space="preserve">
<style type="text/css">
	.st0{fill:#102B72;}
	.st1{fill:#987C4D;}
	.st2{display:none;}
	.st3{display:inline;}
	.st4{fill:#00538B;}
	.st5{fill:#8E1537;}
	.st6{display:inline;fill:#8E1537;}
	.st7{fill:#006C85;}
	.st8{display:inline;fill:#006C85;}
	.st9{display:inline;fill:#D5A10F;}
	.st10{fill:#D5A10F;}
	.st11{fill:#3D1152;}
	.st12{display:inline;fill:#3D1152;}
	.st13{fill:#006241;}
</style>
<g id="SMU">
	<g>
		<g>
			<path class="st0" d="M46.1,44.16c-0.43-0.21-0.46-0.32-0.46-1.11c0-1.47,0.12-2.64,0.15-3.11c0.03-0.32,0.09-0.47,0.25-0.47
				c0.19,0,0.21,0.09,0.21,0.33c0,0.26,0,0.67,0.09,1.08c0.46,2.17,2.49,2.99,4.56,2.99c2.95,0,4.4-2.03,4.4-3.9
				c0-2.02-0.89-3.2-3.54-5.28l-1.39-1.09c-3.26-2.55-4-4.37-4-6.36c0-3.14,2.46-5.28,6.37-5.28c1.2,0,2.09,0.12,2.86,0.29
				c0.58,0.12,0.83,0.15,1.08,0.15c0.24,0,0.31,0.06,0.31,0.2c0,0.15-0.12,1.12-0.12,3.11c0,0.47-0.06,0.67-0.21,0.67
				c-0.19,0-0.21-0.15-0.25-0.38c-0.03-0.35-0.22-1.15-0.4-1.47c-0.18-0.32-1.01-1.55-3.85-1.55c-2.12,0-3.79,1.26-3.79,3.4
				c0,1.67,0.86,2.67,3.76,4.92L53,31.96c3.64,2.73,4.5,4.54,4.5,6.89c0,1.2-0.49,3.43-2.62,4.87c-1.32,0.88-2.99,1.23-4.65,1.23
				C48.78,44.95,47.37,44.74,46.1,44.16z"/>
			<path class="st0" d="M86.59,41.07c0.12,1.06,0.34,2.7,1.66,3.11c0.9,0.27,1.69,0.27,2,0.27c0.15,0,0.24,0.03,0.24,0.14
				c0,0.18-0.28,0.27-0.65,0.27c-0.68,0-4-0.09-5.14-0.18c-0.71-0.05-0.86-0.14-0.86-0.29c0-0.12,0.06-0.18,0.21-0.21
				c0.16-0.03,0.18-0.53,0.12-1.06L82.7,27.99h-0.09l-7.55,15.25c-0.65,1.29-0.74,1.56-1.02,1.56c-0.21,0-0.37-0.29-0.95-1.35
				c-0.8-1.44-3.45-6.51-3.6-6.8c-0.28-0.53-3.73-7.57-4.07-8.36h-0.12l-1.23,13.61c-0.03,0.47-0.03,1-0.03,1.5
				c0,0.44,0.34,0.82,0.8,0.91c0.52,0.12,0.98,0.15,1.17,0.15c0.12,0,0.25,0.06,0.25,0.14c0,0.21-0.19,0.27-0.56,0.27
				c-1.14,0-2.62-0.09-2.86-0.09c-0.27,0-1.75,0.09-2.58,0.09c-0.31,0-0.53-0.06-0.53-0.27c0-0.09,0.16-0.14,0.31-0.14
				c0.24,0,0.46,0,0.92-0.09c1.02-0.18,1.11-1.32,1.23-2.44l2.22-19.12c0.06-0.32,0.15-0.53,0.34-0.53c0.19,0,0.31,0.12,0.46,0.44
				l9.42,18.45l9.05-18.42c0.12-0.26,0.25-0.47,0.46-0.47c0.22,0,0.31,0.23,0.37,0.79L86.59,41.07z"/>
			<path class="st0" d="M92.06,30.87c0-4.58,0-5.4-0.06-6.34c-0.06-1-0.31-1.47-1.32-1.67c-0.25-0.06-0.77-0.09-1.05-0.09
				c-0.13,0-0.25-0.06-0.25-0.18c0-0.17,0.16-0.23,0.49-0.23c1.39,0,3.27,0.09,3.54,0.09c0.28,0,2.12-0.09,3.05-0.09
				c0.34,0,0.49,0.06,0.49,0.23c0,0.12-0.12,0.18-0.25,0.18c-0.22,0-0.4,0.03-0.77,0.09c-0.83,0.12-1.08,0.64-1.14,1.67
				c-0.06,0.94-0.06,1.76-0.06,6.34v4.11c0,4.23,0.99,6.04,2.31,7.25c1.51,1.35,2.9,1.61,4.65,1.61c1.88,0,3.73-0.85,4.83-2.11
				c1.42-1.67,1.79-4.17,1.79-7.19v-3.67c0-4.58,0-5.4-0.06-6.34c-0.06-1-0.31-1.47-1.32-1.67c-0.25-0.06-0.77-0.09-1.05-0.09
				c-0.12,0-0.25-0.06-0.25-0.18c0-0.17,0.15-0.23,0.49-0.23c1.39,0,3.08,0.09,3.26,0.09c0.22,0,1.67-0.09,2.59-0.09
				c0.34,0,0.49,0.06,0.49,0.23c0,0.12-0.12,0.18-0.24,0.18c-0.22,0-0.4,0-0.77,0.09c-0.83,0.15-1.08,0.64-1.14,1.67
				c-0.06,0.94-0.06,1.76-0.06,6.34v3.14c0,3.17-0.37,6.69-2.83,8.77c-2.22,1.88-4.53,2.17-6.35,2.17c-1.04,0-4.15-0.12-6.34-2.08
				c-1.51-1.38-2.68-3.43-2.68-7.71V30.87z"/>
		</g>
		<g>
			<polygon class="st0" points="28.97,33.87 22.8,28.23 22.8,28.23 22.8,28.23 22.8,28.23 22.8,28.23 16.63,33.87 22.79,31.88 
				22.8,31.88 			"/>
			<g>
				<polygon class="st0" points="22.8,28.22 24.83,22.64 29.37,22.09 				"/>
				<polygon class="st0" points="33.96,23.91 29.37,22.09 29.24,14.59 				"/>
				<polygon class="st0" points="30.36,11.21 34.95,11.21 29.24,14.6 				"/>
			</g>
			<polygon class="st1" points="22.8,28.22 20.77,22.64 16.23,22.09 			"/>
			<polygon class="st1" points="11.64,23.91 16.23,22.09 16.36,14.59 			"/>
			<polygon class="st1" points="15.23,11.21 10.65,11.21 16.36,14.6 			"/>
			<path class="st1" d="M38.51,0c-4.09,3.85-6.9,2.16-8.34,1.85c-0.76-0.31-1.71-0.49-2.75-0.49c-2.5,0-4.52,1.06-4.52,2.38
				c0,0.47,0.27,0.92,0.72,1.28c0.47-0.43,1.19-0.78,2.06-0.99l0,0c0.88-0.15,2.37-0.27,4.15,0.18c0.16,0.04,0.33,0.09,0.51,0.14
				l0,0c0.21,0.07,0.41,0.11,0.57,0.14c0.08,0.02,0.14,0.03,0.22,0.04c4.63,1.03,7.41-1.3,7.41-1.3L38.51,0z"/>
			<path class="st0" d="M22.39,40.46c0,0-2.58-0.01-3.84-0.62c-2.29-1.1-2.72-4.49-3.01-7.29c-0.03-0.31-2.16-0.98-3.17-1.91
				c-1.65-1.51-1.39-6.2-1.39-6.5c0-0.3-2.67-1.61-2.67-4.52c0-1.23,0.02-8.1,0.02-8.1C6.59,9.36,5.48,9.33,4.1,9.76
				c-1.72,0.55-2.22,1.82-4.01,2.08c0,0.39-0.02,20.88-0.02,20.88c0,6.31,1.16,10.67,7.63,15.52c6,4.5,10.64,4.39,14.69,11.75
				C22.45,60.12,22.41,40.46,22.39,40.46z"/>
		</g>
	</g>
</g>
<g id="LKCSB" class="st2">
</g>
<g id="SOA" class="st2">
</g>
<g id="SOE" class="st2">
</g>
<g id="SOIS" class="st2">
</g>
<g id="SOL" class="st2">
</g>
<g id="SOSSC">
</g>
</svg>
