<?xml version="1.0" encoding="utf-8"?>
<!-- Generator: Adobe Illustrator 23.0.1, SVG Export Plug-In . SVG Version: 6.00 Build 0)  -->
<svg version="1.1" xmlns="http://www.w3.org/2000/svg" xmlns:xlink="http://www.w3.org/1999/xlink" x="0px" y="0px"
	 viewBox="0 0 81.12 60" style="enable-background:new 0 0 81.12 60;" xml:space="preserve">
<style type="text/css">
	.st0{fill:#102B72;}
	.st1{fill:#987C4D;}
	.st2{display:none;}
	.st3{display:inline;}
	.st4{fill:#00538B;}
	.st5{fill:#8E1537;}
	.st6{display:inline;fill:#8E1537;}
	.st7{fill:#006C85;}
	.st8{display:inline;fill:#006C85;}
	.st9{display:inline;fill:#D5A10F;}
	.st10{fill:#D5A10F;}
	.st11{fill:#3D1152;}
	.st12{display:inline;fill:#3D1152;}
	.st13{fill:#006241;}
</style>
<g id="SMU">
</g>
<g id="_x2F_SCHOOLS" class="st2">
	<g id="LKCSB">
		<g class="st3">
			<g>
				<path class="st4" d="M17.76,42.19h6.52c3.5,0,5.77,1.17,5.96,4.31c0,1.82-0.75,3.24-2.68,3.99c2.29,0.92,3.07,1.97,3.07,4.65
					c0,2.72-1.92,4.62-6.4,4.62h-6.47V42.19z M21.11,49.2h3.36c1.61,0,2.41-0.92,2.41-2.14s-0.8-2.14-2.41-2.14h-3.36V49.2z
					 M21.11,57.03h3.36c1.95,0,2.8-0.88,2.8-2.55c0-1.68-0.85-2.55-2.8-2.55h-3.36V57.03z"/>
				<path class="st4" d="M43.34,47.11v12.65h-2.77v-1.36C39.45,59.17,38.16,60,36.67,60c-2.53,0-3.75-1.65-3.75-4.23v-8.66h3.02
					v8.22c0,1.7,0.54,2.24,1.56,2.24c1.31,0,2.31-0.75,2.82-1.34v-9.12H43.34z"/>
				<path class="st4" d="M52.09,50.44c-0.61-0.66-1.41-1.34-2.36-1.34c-1.17,0-1.7,0.49-1.7,1.24c0,2.17,6.33,1.24,6.33,5.86
					c0,2.63-2,3.8-4.65,3.8c-2.02,0-3.67-0.9-4.79-2.55l2.02-1.51c0.71,0.97,1.65,1.82,2.94,1.82c1.07,0,1.8-0.58,1.8-1.43
					c0-2.17-6.33-1.39-6.33-5.79c0-2.36,2-3.67,4.18-3.67c1.68,0,3.36,0.63,4.45,1.92L52.09,50.44z"/>
				<path class="st4" d="M56.33,44.77v-2.82h3.02v2.82H56.33z M59.35,59.76h-3.02V47.11h3.02V59.76z"/>
				<path class="st4" d="M62.04,59.76V47.11h2.77v1.36c1.12-0.78,2.41-1.61,3.89-1.61c2.53,0,3.75,1.65,3.75,4.23v8.66h-3.02v-8.22
					c0-1.7-0.54-2.24-1.56-2.24c-1.31,0-2.31,0.75-2.82,1.34v9.12H62.04z"/>
				<path class="st4" d="M77.25,53.92c0.05,2.63,1.22,3.65,2.63,3.65c1.41,0,2.07-0.63,2.82-1.51l2.19,1.36
					c-1.17,1.8-2.87,2.58-5.3,2.58c-3.28,0-5.35-2.55-5.35-6.57c0-4.01,2.07-6.57,5.5-6.57c3.31-0.02,5.16,2.77,5.16,5.81v1.24
					H77.25z M82.11,51.87c-0.05-1.75-0.97-2.77-2.43-2.77s-2.38,1.02-2.43,2.77H82.11z"/>
			</g>
			<g>
				<path class="st4" d="M22.73,28.11c-0.27-0.72-0.83-1.22-1.67-1.22c-0.78,0-1.33,0.31-1.33,1.03c0,1.6,4.81,1.27,4.81,4.29
					c0,1.91-1.2,2.87-3.27,2.87c-1.53,0-2.96-0.85-3.49-2.21l1.47-0.65c0.43,0.88,0.98,1.46,2.03,1.46c0.89,0,1.58-0.34,1.58-1.24
					c0-1.84-4.81-1.47-4.81-4.34c0-1.67,1.4-2.61,3.01-2.61c1.5,0,2.74,0.75,3.3,2.11L22.73,28.11z"/>
				<path class="st4" d="M29.61,30.43c-0.26-0.57-0.54-1.02-1.32-1.02c-0.89,0-1.32,0.7-1.32,2.2c0,1.5,0.43,2.2,1.37,2.2
					c0.7,0,1.1-0.48,1.42-1.07l1.21,0.69c-0.65,1.2-1.46,1.69-2.69,1.68c-1.82,0-2.92-1.36-2.92-3.49c0-2.13,1.1-3.49,2.92-3.49
					c1.27,0,2.28,0.67,2.65,1.8L29.61,30.43z"/>
				<path class="st4" d="M31.96,34.96v-9.33h1.6v3.34c0.49-0.41,1.15-0.85,1.94-0.85c1.34,0,1.99,0.88,1.99,2.25v4.6h-1.6v-4.37
					c0-0.91-0.28-1.19-0.83-1.19c-0.7,0-1.23,0.4-1.5,0.71v4.85H31.96z"/>
				<path class="st4" d="M41.4,28.11c1.82,0,2.92,1.36,2.92,3.49c0,2.13-1.1,3.49-2.92,3.49s-2.92-1.36-2.92-3.49
					C38.48,29.47,39.58,28.11,41.4,28.11z M41.4,29.41c-0.89,0-1.32,0.7-1.32,2.2c0,1.5,0.43,2.2,1.32,2.2s1.32-0.7,1.32-2.2
					C42.72,30.1,42.3,29.41,41.4,29.41z"/>
				<path class="st4" d="M47.86,28.11c1.82,0,2.92,1.36,2.92,3.49c0,2.13-1.1,3.49-2.92,3.49s-2.92-1.36-2.92-3.49
					C44.93,29.47,46.03,28.11,47.86,28.11z M47.86,29.41c-0.89,0-1.32,0.7-1.32,2.2c0,1.5,0.43,2.2,1.32,2.2
					c0.89,0,1.32-0.7,1.32-2.2C49.17,30.1,48.75,29.41,47.86,29.41z"/>
				<path class="st4" d="M51.88,34.96v-9.33h1.6v9.33H51.88z"/>
				<path class="st4" d="M61.65,28.11c1.82,0,2.92,1.36,2.92,3.49c0,2.13-1.1,3.49-2.92,3.49s-2.92-1.36-2.92-3.49
					C58.73,29.47,59.83,28.11,61.65,28.11z M61.65,29.41c-0.89,0-1.32,0.7-1.32,2.2c0,1.5,0.43,2.2,1.32,2.2s1.32-0.7,1.32-2.2
					C62.97,30.1,62.54,29.41,61.65,29.41z"/>
				<path class="st4" d="M67.45,29.53v5.43h-1.6v-5.43h-0.93v-1.29h0.92v-0.83c0-1.45,0.58-1.91,1.9-1.91h1.06v1.29h-0.44
					c-0.67,0-0.91,0.21-0.91,0.72v0.72h1.36v1.29H67.45z"/>
			</g>
			<g>
				<path class="st4" d="M17.72,20.71v-9.33h1.78v7.83h4.06v1.5H17.72z"/>
				<path class="st4" d="M25.69,17.61c0.03,1.4,0.65,1.94,1.4,1.94s1.1-0.34,1.5-0.8l1.16,0.72c-0.62,0.96-1.53,1.37-2.82,1.37
					c-1.75,0-2.84-1.36-2.84-3.49c0-2.13,1.1-3.49,2.92-3.49c1.76-0.01,2.74,1.47,2.74,3.09v0.66H25.69z M28.27,16.52
					c-0.03-0.93-0.52-1.47-1.29-1.47s-1.27,0.54-1.29,1.47H28.27z"/>
				<path class="st4" d="M32.05,17.61c0.03,1.4,0.65,1.94,1.4,1.94s1.1-0.34,1.5-0.8l1.16,0.72c-0.62,0.96-1.53,1.37-2.82,1.37
					c-1.75,0-2.84-1.36-2.84-3.49c0-2.13,1.1-3.49,2.92-3.49c1.76-0.01,2.74,1.47,2.74,3.09v0.66H32.05z M34.64,16.52
					c-0.03-0.93-0.52-1.47-1.29-1.47s-1.27,0.54-1.29,1.47H34.64z"/>
				<path class="st4" d="M41.55,20.71v-9.33h1.78v4.18h-0.03l3.14-4.18h2.06l-2.65,3.5l3.08,5.83h-1.98l-2.31-4.43l-1.31,1.63v2.81
					H41.55z"/>
				<path class="st4" d="M51.96,13.86c1.82,0,2.92,1.36,2.92,3.49c0,2.13-1.1,3.49-2.92,3.49s-2.92-1.36-2.92-3.49
					C49.04,15.22,50.14,13.86,51.96,13.86z M51.96,15.15c-0.89,0-1.32,0.7-1.32,2.2c0,1.5,0.43,2.2,1.32,2.2s1.32-0.7,1.32-2.2
					C53.28,15.85,52.86,15.15,51.96,15.15z"/>
				<path class="st4" d="M55.89,20.71v-6.72h1.47v0.72c0.59-0.41,1.28-0.85,2.07-0.85c1.34,0,1.99,0.88,1.99,2.25v4.6h-1.6v-4.37
					c0-0.91-0.28-1.19-0.83-1.19c-0.7,0-1.23,0.4-1.5,0.71v4.85H55.89z"/>
				<path class="st4" d="M68.39,14.95c-0.37,0-0.79,0-1.03,0.16c0.21,0.28,0.36,0.67,0.36,1.19c0,1.27-0.85,2.17-2.53,2.17
					c-0.7,0-1.25,0.03-1.25,0.41c0,1.09,4.42-0.39,4.42,2.3c0,0.96-0.97,1.99-3.12,1.99c-1.81,0-3-0.54-3-1.6
					c0-0.84,0.63-1.24,1.22-1.24V20.3c-0.31-0.19-1-0.36-1-1.09c0-0.65,0.75-1.14,1.05-1.23c-0.56-0.45-1-0.97-1-1.78
					c0-1.18,0.9-2.34,2.65-2.34c0.57,0,1.24,0.23,1.65,0.59c0.31-0.41,0.81-0.62,1.58-0.59V14.95z M63.72,21.36
					c0,0.52,0.44,0.75,1.78,0.75c1.03,0,1.38-0.52,1.38-0.75c0-0.31-0.48-0.78-2.03-0.78C63.97,20.58,63.72,21.07,63.72,21.36z
					 M65.15,15.05c-0.69,0-1.16,0.49-1.16,1.11c0,0.62,0.48,1.11,1.16,1.11c0.61,0,1.1-0.49,1.1-1.11
					C66.25,15.54,65.76,15.05,65.15,15.05z"/>
				<path class="st4" d="M78.27,14.09c-0.26-0.79-0.81-1.34-1.69-1.34c-1.19,0-1.91,1.11-1.91,3.3c-0.03,2.18,0.62,3.3,1.96,3.3
					c0.8,0,1.29-0.28,1.82-1.38l1.65,0.44c-0.56,1.62-1.77,2.44-3.48,2.44c-2.38,0-3.75-1.75-3.75-4.8c0-3.05,1.37-4.8,3.75-4.8
					c1.78,0,2.82,0.8,3.26,2.46L78.27,14.09z"/>
				<path class="st4" d="M81,20.71v-9.33h1.6v3.34c0.49-0.41,1.15-0.85,1.94-0.85c1.34,0,1.99,0.88,1.99,2.25v4.6h-1.6v-4.37
					c0-0.91-0.28-1.19-0.83-1.19c-0.7,0-1.23,0.4-1.5,0.71v4.85H81z"/>
			</g>
			<rect id="Separator_2_" x="-0.01" y="11.25" class="st4" width="1" height="48.38"/>
		</g>
	</g>
	<g id="SOA">
		<g class="st3">
			<g>
				<path class="st5" d="M22.58,28.1h4.08l4.86,17.15h-3.25l-0.95-3.7h-5.41l-1.02,3.7h-3.25L22.58,28.1z M22.63,38.85h3.99
					l-1.92-7.45h-0.05L22.63,38.85z"/>
				<path class="st5" d="M39.75,36.92c-0.47-1.04-1-1.87-2.42-1.87c-1.64,0-2.42,1.28-2.42,4.03c0,2.75,0.78,4.03,2.51,4.03
					c1.28,0,2.02-0.88,2.61-1.97l2.23,1.26c-1.19,2.21-2.68,3.11-4.94,3.08c-3.35,0-5.36-2.49-5.36-6.41c0-3.92,2.02-6.41,5.36-6.41
					c2.33,0,4.18,1.23,4.86,3.3L39.75,36.92z"/>
				<path class="st5" d="M51.11,36.92c-0.47-1.04-1-1.87-2.42-1.87c-1.64,0-2.42,1.28-2.42,4.03c0,2.75,0.78,4.03,2.51,4.03
					c1.28,0,2.02-0.88,2.61-1.97l2.23,1.26c-1.19,2.21-2.68,3.11-4.94,3.08c-3.35,0-5.36-2.49-5.36-6.41c0-3.92,2.02-6.41,5.36-6.41
					c2.33,0,4.18,1.23,4.86,3.3L51.11,36.92z"/>
				<path class="st5" d="M60.04,32.68c3.35,0,5.36,2.49,5.36,6.41c0,3.91-2.02,6.41-5.36,6.41s-5.36-2.49-5.36-6.41
					C54.68,35.17,56.7,32.68,60.04,32.68z M60.04,35.05c-1.64,0-2.42,1.28-2.42,4.03c0,2.75,0.78,4.03,2.42,4.03
					s2.42-1.28,2.42-4.03C62.46,36.33,61.68,35.05,60.04,35.05z"/>
				<path class="st5" d="M77.31,32.91v12.34h-2.7v-1.33c-1.09,0.76-2.35,1.57-3.8,1.57c-2.47,0-3.65-1.61-3.65-4.13v-8.45h2.94v8.02
					c0,1.66,0.52,2.18,1.52,2.18c1.28,0,2.25-0.74,2.75-1.3v-8.9H77.31z"/>
				<path class="st5" d="M79.85,45.25V32.91h2.7v1.33c1.09-0.76,2.35-1.57,3.8-1.57c2.47,0,3.65,1.61,3.65,4.13v8.45h-2.94v-8.02
					c0-1.66-0.52-2.18-1.52-2.18c-1.28,0-2.25,0.74-2.75,1.31v8.9H79.85z"/>
			</g>
			<g>
				<path class="st5" d="M22.47,14.01c-0.26-0.71-0.81-1.18-1.63-1.18c-0.76,0-1.3,0.3-1.3,1.01c0,1.56,4.69,1.23,4.69,4.18
					c0,1.86-1.17,2.8-3.19,2.8c-1.49,0-2.89-0.83-3.4-2.15l1.44-0.63c0.42,0.86,0.96,1.42,1.98,1.42c0.87,0,1.54-0.33,1.54-1.21
					c0-1.79-4.69-1.44-4.69-4.23c0-1.63,1.36-2.55,2.94-2.55c1.46,0,2.67,0.73,3.21,2.05L22.47,14.01z"/>
				<path class="st5" d="M29.19,16.26c-0.25-0.55-0.53-1-1.29-1c-0.87,0-1.29,0.68-1.29,2.14c0,1.46,0.42,2.14,1.34,2.14
					c0.68,0,1.07-0.47,1.39-1.05l1.18,0.67c-0.63,1.17-1.42,1.65-2.62,1.64c-1.78,0-2.85-1.32-2.85-3.4c0-2.08,1.07-3.4,2.85-3.4
					c1.23,0,2.22,0.66,2.58,1.75L29.19,16.26z"/>
				<path class="st5" d="M31.49,20.68v-9.1h1.56v3.25c0.48-0.4,1.12-0.83,1.89-0.83c1.31,0,1.94,0.86,1.94,2.19v4.49h-1.56v-4.26
					c0-0.88-0.28-1.16-0.81-1.16c-0.68,0-1.2,0.39-1.46,0.69v4.72H31.49z"/>
				<path class="st5" d="M40.71,14.01c1.78,0,2.85,1.32,2.85,3.4c0,2.08-1.07,3.4-2.85,3.4s-2.85-1.32-2.85-3.4
					C37.86,15.33,38.93,14.01,40.71,14.01z M40.71,15.27c-0.87,0-1.29,0.68-1.29,2.14c0,1.46,0.42,2.14,1.29,2.14
					s1.29-0.68,1.29-2.14C41.99,15.95,41.58,15.27,40.71,15.27z"/>
				<path class="st5" d="M47.01,14.01c1.78,0,2.85,1.32,2.85,3.4c0,2.08-1.07,3.4-2.85,3.4c-1.78,0-2.85-1.32-2.85-3.4
					C44.16,15.33,45.23,14.01,47.01,14.01z M47.01,15.27c-0.87,0-1.29,0.68-1.29,2.14c0,1.46,0.42,2.14,1.29,2.14
					s1.29-0.68,1.29-2.14C48.29,15.95,47.88,15.27,47.01,15.27z"/>
				<path class="st5" d="M50.94,20.68v-9.1h1.56v9.1H50.94z"/>
				<path class="st5" d="M60.47,14.01c1.78,0,2.85,1.32,2.85,3.4c0,2.08-1.07,3.4-2.85,3.4s-2.85-1.32-2.85-3.4
					C57.62,15.33,58.69,14.01,60.47,14.01z M60.47,15.27c-0.87,0-1.29,0.68-1.29,2.14c0,1.46,0.42,2.14,1.29,2.14
					s1.29-0.68,1.29-2.14C61.75,15.95,61.34,15.27,60.47,15.27z"/>
				<path class="st5" d="M66.13,15.39v5.29h-1.56v-5.29h-0.91v-1.26h0.89v-0.81c0-1.41,0.57-1.87,1.85-1.87h1.03v1.26h-0.43
					c-0.66,0-0.88,0.2-0.88,0.7v0.71h1.32v1.26H66.13z"/>
			</g>
		</g>
		<rect id="Separator_10_" x="-0.01" y="11.4" class="st6" width="0.89" height="34"/>
	</g>
	<g id="SOE">
		<g class="st3">
			<path class="st7" d="M17.66,45.17V28.08h11.31v2.74h-8.05v4.07h5.85v2.75h-5.85v4.78h8.31v2.75H17.66z"/>
			<path class="st7" d="M38.04,36.86c-0.47-1.04-0.99-1.87-2.41-1.87c-1.63,0-2.41,1.28-2.41,4.02c0,2.75,0.78,4.02,2.51,4.02
				c1.28,0,2.01-0.88,2.6-1.96l2.22,1.25c-1.18,2.2-2.67,3.1-4.92,3.08c-3.34,0-5.35-2.48-5.35-6.39c0-3.9,2.01-6.39,5.35-6.39
				c2.32,0,4.17,1.23,4.85,3.29L38.04,36.86z"/>
			<path class="st7" d="M46.95,32.62c3.34,0,5.35,2.48,5.35,6.39c0,3.91-2.01,6.39-5.35,6.39c-3.34,0-5.35-2.48-5.35-6.39
				C41.6,35.11,43.61,32.62,46.95,32.62z M46.95,34.99c-1.63,0-2.41,1.28-2.41,4.02c0,2.75,0.78,4.02,2.41,4.02s2.41-1.28,2.41-4.02
				C49.36,36.27,48.58,34.99,46.95,34.99z"/>
			<path class="st7" d="M54.09,45.17V32.86h2.7v1.33c1.09-0.76,2.34-1.56,3.79-1.56c2.46,0,3.64,1.61,3.64,4.12v8.42h-2.93v-8
				c0-1.66-0.52-2.18-1.51-2.18c-1.28,0-2.25,0.73-2.74,1.3v8.87H54.09z"/>
			<path class="st7" d="M71.32,32.62c3.34,0,5.35,2.48,5.35,6.39c0,3.91-2.01,6.39-5.35,6.39c-3.34,0-5.35-2.48-5.35-6.39
				C65.97,35.11,67.98,32.62,71.32,32.62z M71.32,34.99c-1.63,0-2.41,1.28-2.41,4.02c0,2.75,0.78,4.02,2.41,4.02
				c1.63,0,2.41-1.28,2.41-4.02C73.73,36.27,72.95,34.99,71.32,34.99z"/>
			<path class="st7" d="M78.46,45.17V32.86h2.67v1.33c1.11-1.02,2.01-1.56,3.69-1.56c1.28,0,2.48,0.62,3.03,1.8
				c1.02-1.02,2.2-1.8,4.24-1.8c1.28,0,3.03,0.76,3.03,3.69v8.85h-2.93v-8.59c0-0.99-0.4-1.54-1.47-1.59
				c-0.76,0-1.78,0.69-2.46,1.33v8.85h-2.93v-8.59c0-0.99-0.4-1.54-1.47-1.59c-0.76,0-1.77,0.69-2.46,1.33v8.85H78.46z"/>
		</g>
		<g class="st3">
			<path class="st7" d="M22.47,14c-0.26-0.7-0.8-1.18-1.62-1.18c-0.75,0-1.29,0.3-1.29,1c0,1.56,4.68,1.23,4.68,4.17
				c0,1.86-1.17,2.79-3.18,2.79c-1.48,0-2.88-0.83-3.39-2.15l1.43-0.63c0.41,0.85,0.96,1.42,1.97,1.42c0.87,0,1.53-0.33,1.53-1.21
				c0-1.78-4.68-1.43-4.68-4.22c0-1.62,1.36-2.54,2.93-2.54c1.46,0,2.66,0.73,3.2,2.05L22.47,14z"/>
			<path class="st7" d="M29.17,16.25c-0.25-0.55-0.53-0.99-1.28-0.99c-0.87,0-1.28,0.68-1.28,2.14s0.41,2.14,1.33,2.14
				c0.68,0,1.07-0.47,1.38-1.04l1.18,0.67c-0.63,1.17-1.42,1.65-2.61,1.63c-1.77,0-2.84-1.32-2.84-3.39S26.12,14,27.89,14
				c1.23,0,2.21,0.65,2.58,1.75L29.17,16.25z"/>
			<path class="st7" d="M31.47,20.66v-9.07h1.56v3.24c0.48-0.4,1.12-0.83,1.88-0.83c1.31,0,1.94,0.85,1.94,2.19v4.47h-1.56v-4.25
				c0-0.88-0.28-1.16-0.8-1.16c-0.68,0-1.19,0.39-1.46,0.69v4.71H31.47z"/>
			<path class="st7" d="M40.66,14c1.77,0,2.84,1.32,2.84,3.39s-1.07,3.39-2.84,3.39c-1.77,0-2.84-1.32-2.84-3.39S38.89,14,40.66,14z
				 M40.66,15.26c-0.87,0-1.28,0.68-1.28,2.14s0.41,2.14,1.28,2.14s1.28-0.68,1.28-2.14S41.53,15.26,40.66,15.26z"/>
			<path class="st7" d="M46.95,14c1.77,0,2.84,1.32,2.84,3.39s-1.07,3.39-2.84,3.39c-1.77,0-2.84-1.32-2.84-3.39S45.17,14,46.95,14z
				 M46.95,15.26c-0.87,0-1.28,0.68-1.28,2.14s0.41,2.14,1.28,2.14c0.87,0,1.28-0.68,1.28-2.14S47.81,15.26,46.95,15.26z"/>
			<path class="st7" d="M50.87,20.66v-9.07h1.56v9.07H50.87z"/>
			<path class="st7" d="M60.37,14c1.77,0,2.84,1.32,2.84,3.39s-1.07,3.39-2.84,3.39c-1.77,0-2.84-1.32-2.84-3.39S58.6,14,60.37,14z
				 M60.37,15.26c-0.87,0-1.28,0.68-1.28,2.14s0.41,2.14,1.28,2.14c0.87,0,1.28-0.68,1.28-2.14S61.24,15.26,60.37,15.26z"/>
			<path class="st7" d="M66.02,15.38v5.28h-1.56v-5.28h-0.9v-1.26h0.89v-0.8c0-1.41,0.57-1.86,1.85-1.86h1.03v1.26H66.9
				c-0.65,0-0.88,0.2-0.88,0.7v0.7h1.32v1.26H66.02z"/>
		</g>
		<rect id="Separator_3_" x="-0.01" y="11.33" class="st8" width="1" height="34"/>
	</g>
	<g id="SOIS">
		<rect id="Separator_6_" x="-0.01" y="11.29" class="st9" width="1" height="34"/>
		<g class="st3">
			<g>
				<path class="st10" d="M17.66,45.19v-17.1h3.27v17.1H17.66z"/>
				<path class="st10" d="M23.94,45.19V32.88h2.7v1.33c1.09-0.76,2.34-1.56,3.79-1.56c2.46,0,3.65,1.61,3.65,4.12v8.43h-2.94v-8.01
					c0-1.66-0.52-2.18-1.52-2.18c-1.28,0-2.25,0.73-2.75,1.3v8.88H23.94z"/>
				<path class="st10" d="M40.07,35.25v9.95h-2.94v-9.95h-1.71v-2.37h1.68v-1.52c0-2.65,1.07-3.51,3.48-3.51h1.94v2.37h-0.81
					c-1.23,0-1.66,0.38-1.66,1.33v1.33h2.49v2.37H40.07z"/>
				<path class="st10" d="M48.57,32.64c3.34,0,5.35,2.49,5.35,6.4c0,3.91-2.01,6.39-5.35,6.39s-5.35-2.49-5.35-6.39
					C43.21,35.13,45.23,32.64,48.57,32.64z M48.57,35.01c-1.63,0-2.42,1.28-2.42,4.03c0,2.75,0.78,4.03,2.42,4.03
					s2.42-1.28,2.42-4.03C50.98,36.29,50.2,35.01,48.57,35.01z"/>
				<path class="st10" d="M55.62,45.19V32.88h2.7v2.11h0.05c0.71-1.47,1.71-2.3,3.46-2.35v3.1c-0.14-0.02-0.31-0.02-0.52-0.02
					c-1.47,0-2.75,1.68-2.75,1.99v7.48H55.62z"/>
				<path class="st10" d="M63.24,45.19V32.88h2.68v1.33c1.11-1.02,2.01-1.56,3.69-1.56c1.28,0,2.49,0.62,3.03,1.8
					c1.02-1.02,2.2-1.8,4.24-1.8c1.28,0,3.03,0.76,3.03,3.69v8.86h-2.94v-8.6c0-0.99-0.4-1.54-1.47-1.59
					c-0.76,0-1.78,0.69-2.46,1.33v8.86h-2.94v-8.6c0-0.99-0.4-1.54-1.47-1.59c-0.76,0-1.78,0.69-2.46,1.33v8.86H63.24z"/>
			</g>
			<g>
				<path class="st10" d="M22.48,14c-0.26-0.7-0.81-1.18-1.62-1.18c-0.75,0-1.3,0.3-1.3,1.01c0,1.56,4.68,1.23,4.68,4.18
					c0,1.86-1.17,2.79-3.18,2.79c-1.48,0-2.88-0.83-3.4-2.15l1.43-0.63c0.41,0.86,0.96,1.42,1.97,1.42c0.87,0,1.53-0.33,1.53-1.21
					c0-1.79-4.68-1.43-4.68-4.23c0-1.62,1.36-2.54,2.93-2.54c1.46,0,2.67,0.73,3.21,2.05L22.48,14z"/>
				<path class="st10" d="M29.18,16.25c-0.25-0.55-0.53-0.99-1.28-0.99c-0.87,0-1.28,0.68-1.28,2.14c0,1.46,0.42,2.14,1.33,2.14
					c0.68,0,1.07-0.47,1.38-1.04l1.18,0.67c-0.63,1.17-1.42,1.65-2.62,1.63c-1.77,0-2.84-1.32-2.84-3.4c0-2.08,1.07-3.4,2.84-3.4
					c1.23,0,2.21,0.65,2.58,1.75L29.18,16.25z"/>
				<path class="st10" d="M31.48,20.67v-9.08h1.56v3.24c0.48-0.4,1.12-0.83,1.89-0.83c1.31,0,1.94,0.86,1.94,2.19v4.48h-1.56v-4.25
					c0-0.88-0.28-1.16-0.81-1.16c-0.68,0-1.19,0.39-1.46,0.69v4.72H31.48z"/>
				<path class="st10" d="M40.68,14c1.77,0,2.84,1.32,2.84,3.4c0,2.08-1.07,3.4-2.84,3.4s-2.84-1.32-2.84-3.4
					C37.84,15.32,38.91,14,40.68,14z M40.68,15.26c-0.87,0-1.28,0.68-1.28,2.14c0,1.46,0.42,2.14,1.28,2.14
					c0.87,0,1.28-0.68,1.28-2.14C41.96,15.94,41.55,15.26,40.68,15.26z"/>
				<path class="st10" d="M46.97,14c1.77,0,2.84,1.32,2.84,3.4c0,2.08-1.07,3.4-2.84,3.4c-1.77,0-2.84-1.32-2.84-3.4
					C44.13,15.32,45.2,14,46.97,14z M46.97,15.26c-0.87,0-1.28,0.68-1.28,2.14c0,1.46,0.42,2.14,1.28,2.14
					c0.87,0,1.28-0.68,1.28-2.14C48.25,15.94,47.84,15.26,46.97,15.26z"/>
				<path class="st10" d="M50.9,20.67v-9.08h1.56v9.08H50.9z"/>
				<path class="st10" d="M60.41,14c1.77,0,2.84,1.32,2.84,3.4c0,2.08-1.07,3.4-2.84,3.4c-1.77,0-2.84-1.32-2.84-3.4
					C57.56,15.32,58.63,14,60.41,14z M60.41,15.26c-0.87,0-1.28,0.68-1.28,2.14c0,1.46,0.42,2.14,1.28,2.14
					c0.87,0,1.28-0.68,1.28-2.14C61.69,15.94,61.28,15.26,60.41,15.26z"/>
				<path class="st10" d="M66.06,15.39v5.28H64.5v-5.28H63.6v-1.26h0.89v-0.81c0-1.41,0.57-1.86,1.85-1.86h1.03v1.26h-0.43
					c-0.65,0-0.88,0.2-0.88,0.7v0.7h1.32v1.26H66.06z"/>
			</g>
		</g>
	</g>
	<g id="SOL">
		<g class="st3">
			<g>
				<path class="st11" d="M17.78,45.17V28.08h3.27v14.34h7.43v2.74H17.78z"/>
				<path class="st11" d="M36.93,45.17l-0.19-1.06c-1.18,0.8-2.3,1.3-3.83,1.3c-2.22,0-3.34-1.59-3.34-3.27
					c0-2.79,2.27-4.26,7.05-4.83v-1.04c0-0.95-0.76-1.47-1.8-1.47c-1.37,0-2.13,0.73-2.7,1.51l-1.89-1.44
					c0.76-1.3,2.79-2.3,4.59-2.25c3.31,0.07,4.73,1.28,4.73,4.97v5.8c0,0.62,0.05,1.23,0.24,1.77H36.93z M36.62,39.27
					c-1.96,0.38-4.12,0.78-4.12,2.51c0,0.92,0.59,1.44,1.42,1.44c0.92,0,2.08-0.78,2.7-1.3V39.27z"/>
				<path class="st11" d="M40.58,32.86h2.79l1.68,7.67h0.05l1.78-7.67h2.72l1.7,7.67h0.05l1.75-7.67h2.79l-3.17,12.31h-2.65
					l-1.82-7.67H48.2l-1.8,7.67h-2.65L40.58,32.86z"/>
			</g>
			<g>
				<path class="st11" d="M22.46,14c-0.26-0.7-0.8-1.18-1.62-1.18c-0.75,0-1.29,0.3-1.29,1.01c0,1.56,4.68,1.23,4.68,4.17
					c0,1.86-1.17,2.79-3.18,2.79c-1.48,0-2.88-0.83-3.39-2.15l1.43-0.63c0.41,0.85,0.96,1.42,1.97,1.42c0.87,0,1.53-0.33,1.53-1.21
					c0-1.78-4.68-1.43-4.68-4.22c0-1.62,1.36-2.54,2.93-2.54c1.46,0,2.66,0.73,3.2,2.05L22.46,14z"/>
				<path class="st11" d="M29.16,16.25c-0.25-0.55-0.53-0.99-1.28-0.99c-0.87,0-1.28,0.68-1.28,2.14c0,1.46,0.41,2.14,1.33,2.14
					c0.68,0,1.07-0.46,1.38-1.04l1.18,0.67c-0.63,1.17-1.42,1.65-2.61,1.63c-1.77,0-2.84-1.32-2.84-3.39c0-2.07,1.07-3.39,2.84-3.39
					c1.23,0,2.21,0.65,2.58,1.75L29.16,16.25z"/>
				<path class="st11" d="M31.46,20.66v-9.07h1.56v3.24C33.5,14.43,34.14,14,34.9,14c1.31,0,1.94,0.85,1.94,2.19v4.47h-1.56v-4.25
					c0-0.88-0.28-1.16-0.8-1.16c-0.68,0-1.19,0.39-1.46,0.69v4.71H31.46z"/>
				<path class="st11" d="M40.65,14c1.77,0,2.84,1.32,2.84,3.39c0,2.07-1.07,3.39-2.84,3.39c-1.77,0-2.84-1.32-2.84-3.39
					C37.81,15.32,38.88,14,40.65,14z M40.65,15.26c-0.87,0-1.28,0.68-1.28,2.14c0,1.46,0.41,2.14,1.28,2.14s1.28-0.68,1.28-2.14
					C41.93,15.94,41.52,15.26,40.65,15.26z"/>
				<path class="st11" d="M46.93,14c1.77,0,2.84,1.32,2.84,3.39c0,2.07-1.07,3.39-2.84,3.39c-1.77,0-2.84-1.32-2.84-3.39
					C44.09,15.32,45.16,14,46.93,14z M46.93,15.26c-0.87,0-1.28,0.68-1.28,2.14c0,1.46,0.41,2.14,1.28,2.14
					c0.87,0,1.28-0.68,1.28-2.14C48.22,15.94,47.8,15.26,46.93,15.26z"/>
				<path class="st11" d="M50.86,20.66v-9.07h1.56v9.07H50.86z"/>
				<path class="st11" d="M60.36,14c1.77,0,2.84,1.32,2.84,3.39c0,2.07-1.07,3.39-2.84,3.39c-1.77,0-2.84-1.32-2.84-3.39
					C57.52,15.32,58.59,14,60.36,14z M60.36,15.26c-0.87,0-1.28,0.68-1.28,2.14c0,1.46,0.41,2.14,1.28,2.14
					c0.87,0,1.28-0.68,1.28-2.14C61.64,15.94,61.23,15.26,60.36,15.26z"/>
				<path class="st11" d="M66.01,15.38v5.28h-1.56v-5.28h-0.91v-1.26h0.89v-0.8c0-1.41,0.57-1.86,1.85-1.86h1.03v1.26h-0.43
					c-0.65,0-0.88,0.2-0.88,0.7v0.7h1.32v1.26H66.01z"/>
			</g>
		</g>
		<rect id="Separator_5_" x="-0.01" y="11.33" class="st12" width="1" height="34"/>
	</g>
	<g id="SOSSC" class="st3">
		<g>
			<g>
				<path class="st13" d="M26.69,32.58c-0.5-1.32-1.51-2.22-3.05-2.22c-1.42,0-2.43,0.57-2.43,1.89c0,2.93,8.78,2.31,8.78,7.84
					c0,3.5-2.2,5.24-5.97,5.24c-2.79,0-5.41-1.56-6.38-4.04l2.69-1.18c0.78,1.61,1.8,2.67,3.71,2.67c1.63,0,2.88-0.61,2.88-2.27
					c0-3.35-8.78-2.69-8.78-7.93c0-3.05,2.55-4.77,5.5-4.77c2.74,0,5.01,1.37,6.02,3.85L26.69,32.58z"/>
				<path class="st13" d="M36.79,32.58c3.33,0,5.34,2.48,5.34,6.38c0,3.9-2.01,6.38-5.34,6.38c-3.33,0-5.34-2.48-5.34-6.38
					C31.45,35.06,33.46,32.58,36.79,32.58z M36.79,34.94c-1.63,0-2.41,1.28-2.41,4.01c0,2.74,0.78,4.02,2.41,4.02
					c1.63,0,2.41-1.28,2.41-4.02C39.2,36.21,38.42,34.94,36.79,34.94z"/>
				<path class="st13" d="M50.94,36.81c-0.47-1.04-0.99-1.87-2.41-1.87c-1.63,0-2.41,1.28-2.41,4.01c0,2.74,0.78,4.02,2.5,4.02
					c1.28,0,2.01-0.87,2.6-1.96l2.22,1.25c-1.18,2.2-2.67,3.09-4.91,3.07c-3.33,0-5.34-2.48-5.34-6.38c0-3.9,2.01-6.38,5.34-6.38
					c2.31,0,4.16,1.23,4.84,3.28L50.94,36.81z"/>
				<path class="st13" d="M55.36,30.55v-2.74h2.93v2.74H55.36z M58.29,45.09h-2.93V32.81h2.93V45.09z"/>
				<path class="st13" d="M67.35,45.09l-0.19-1.06c-1.18,0.8-2.29,1.3-3.83,1.3c-2.22,0-3.33-1.58-3.33-3.26
					c0-2.79,2.27-4.25,7.04-4.82v-1.04c0-0.94-0.76-1.46-1.79-1.46c-1.37,0-2.13,0.73-2.69,1.51l-1.89-1.44
					c0.76-1.3,2.79-2.29,4.58-2.24c3.31,0.07,4.72,1.28,4.72,4.96v5.78c0,0.61,0.05,1.23,0.24,1.77H67.35z M67.04,39.21
					c-1.96,0.38-4.11,0.78-4.11,2.5c0,0.92,0.59,1.44,1.42,1.44c0.92,0,2.08-0.78,2.69-1.3V39.21z"/>
				<path class="st13" d="M72.56,45.09V28.04h2.93v17.05H72.56z"/>
			</g>
			<g>
				<path class="st13" d="M22.45,14c-0.26-0.7-0.8-1.18-1.62-1.18c-0.75,0-1.29,0.3-1.29,1c0,1.56,4.67,1.23,4.67,4.16
					c0,1.86-1.17,2.78-3.17,2.78c-1.48,0-2.87-0.83-3.39-2.14L19.08,18c0.41,0.85,0.95,1.42,1.97,1.42c0.87,0,1.53-0.33,1.53-1.2
					c0-1.78-4.67-1.43-4.67-4.21c0-1.62,1.35-2.53,2.92-2.53c1.45,0,2.66,0.73,3.2,2.04L22.45,14z"/>
				<path class="st13" d="M29.14,16.24c-0.25-0.55-0.53-0.99-1.28-0.99c-0.87,0-1.28,0.68-1.28,2.13c0,1.45,0.41,2.13,1.33,2.13
					c0.68,0,1.07-0.46,1.38-1.04l1.18,0.66c-0.63,1.17-1.42,1.64-2.61,1.63c-1.77,0-2.83-1.32-2.83-3.39c0-2.07,1.07-3.39,2.83-3.39
					c1.23,0,2.21,0.65,2.57,1.74L29.14,16.24z"/>
				<path class="st13" d="M31.43,20.64v-9.05h1.56v3.24c0.48-0.4,1.12-0.83,1.88-0.83c1.3,0,1.93,0.85,1.93,2.18v4.46h-1.56V16.4
					c0-0.88-0.28-1.15-0.8-1.15c-0.68,0-1.19,0.39-1.45,0.69v4.7H31.43z"/>
				<path class="st13" d="M40.6,14c1.77,0,2.83,1.32,2.83,3.39c0,2.07-1.07,3.39-2.83,3.39c-1.77,0-2.83-1.32-2.83-3.39
					C37.77,15.31,38.83,14,40.6,14z M40.6,15.25c-0.87,0-1.28,0.68-1.28,2.13c0,1.45,0.41,2.13,1.28,2.13
					c0.87,0,1.28-0.68,1.28-2.13C41.88,15.93,41.47,15.25,40.6,15.25z"/>
				<path class="st13" d="M46.87,14c1.77,0,2.83,1.32,2.83,3.39c0,2.07-1.07,3.39-2.83,3.39c-1.77,0-2.83-1.32-2.83-3.39
					C44.04,15.31,45.1,14,46.87,14z M46.87,15.25c-0.87,0-1.28,0.68-1.28,2.13c0,1.45,0.41,2.13,1.28,2.13
					c0.87,0,1.28-0.68,1.28-2.13C48.15,15.93,47.74,15.25,46.87,15.25z"/>
				<path class="st13" d="M50.79,20.64v-9.05h1.56v9.05H50.79z"/>
				<path class="st13" d="M60.27,14c1.77,0,2.83,1.32,2.83,3.39c0,2.07-1.07,3.39-2.83,3.39c-1.77,0-2.83-1.32-2.83-3.39
					C57.43,15.31,58.5,14,60.27,14z M60.27,15.25c-0.87,0-1.28,0.68-1.28,2.13c0,1.45,0.41,2.13,1.28,2.13
					c0.87,0,1.28-0.68,1.28-2.13C61.55,15.93,61.13,15.25,60.27,15.25z"/>
				<path class="st13" d="M65.9,15.37v5.27h-1.56v-5.27h-0.9v-1.25h0.89v-0.8c0-1.4,0.56-1.86,1.84-1.86h1.03v1.25h-0.43
					c-0.65,0-0.88,0.2-0.88,0.7v0.7h1.32v1.25H65.9z"/>
			</g>
		</g>
		<rect id="Separator_1_" x="-0.01" y="11.36" class="st13" width="1" height="34"/>
	</g>
</g>
<g id="_x2F_LABS" class="st2">
	<g id="Livelabs_Urban_Lifestyle_Innovatyion_Platform" class="st3">
		<g>
			<path class="st0" d="M17.95,59.82V47.01h2.37v12.81H17.95z"/>
			<path class="st0" d="M22.55,59.82v-9.23h1.96v0.99c0.79-0.57,1.7-1.17,2.75-1.17c1.79,0,2.65,1.21,2.65,3.09v6.32h-2.14v-6
				c0-1.24-0.38-1.63-1.1-1.63c-0.93,0-1.63,0.55-2,0.98v6.66H22.55z"/>
			<path class="st0" d="M31.77,59.82v-9.23h1.96v0.99c0.79-0.57,1.7-1.17,2.75-1.17c1.79,0,2.65,1.21,2.65,3.09v6.32h-2.14v-6
				c0-1.24-0.38-1.63-1.1-1.63c-0.93,0-1.63,0.55-2,0.98v6.66H31.77z"/>
			<path class="st0" d="M44.33,50.42c2.43,0,3.89,1.86,3.89,4.79c0,2.93-1.46,4.79-3.89,4.79s-3.89-1.86-3.89-4.79
				C40.44,52.28,41.91,50.42,44.33,50.42z M44.33,52.19c-1.19,0-1.76,0.96-1.76,3.02c0,2.06,0.57,3.02,1.76,3.02
				s1.76-0.96,1.76-3.02C46.09,53.15,45.52,52.19,44.33,52.19z"/>
			<path class="st0" d="M48.46,50.59h2.13l1.48,6.25h0.03l1.51-6.25h2.14l-2.57,9.23h-2.24L48.46,50.59z"/>
			<path class="st0" d="M61.33,59.82l-0.14-0.8c-0.86,0.6-1.67,0.98-2.79,0.98c-1.62,0-2.43-1.19-2.43-2.45
				c0-2.09,1.65-3.19,5.13-3.62v-0.78c0-0.71-0.55-1.1-1.31-1.1c-1,0-1.55,0.55-1.96,1.14l-1.38-1.08c0.55-0.98,2.03-1.72,3.34-1.69
				c2.41,0.05,3.44,0.96,3.44,3.73v4.35c0,0.46,0.03,0.92,0.17,1.33H61.33z M61.11,55.4c-1.43,0.28-3,0.59-3,1.88
				c0,0.69,0.43,1.08,1.03,1.08c0.67,0,1.51-0.59,1.96-0.98V55.4z"/>
			<path class="st0" d="M65.41,50.59v-3.05h2.14v3.05h1.76v1.78h-1.76v5.22c0,0.5,0.24,0.64,0.77,0.64c0.33,0,0.67-0.11,0.98-0.18
				v1.81C68.71,59.93,68.2,60,67.61,60c-1.58,0-2.2-0.82-2.2-2.13v-5.5h-1.24v-1.78H65.41z"/>
			<path class="st0" d="M70.69,48.89v-2.06h2.14v2.06H70.69z M72.82,59.82h-2.14v-9.23h2.14V59.82z"/>
			<path class="st0" d="M78.16,50.42c2.43,0,3.89,1.86,3.89,4.79c0,2.93-1.46,4.79-3.89,4.79s-3.89-1.86-3.89-4.79
				C74.27,52.28,75.73,50.42,78.16,50.42z M78.16,52.19c-1.19,0-1.76,0.96-1.76,3.02c0,2.06,0.57,3.02,1.76,3.02
				s1.76-0.96,1.76-3.02C79.91,53.15,79.35,52.19,78.16,52.19z"/>
		</g>
		<g>
			<path class="st0" d="M18,24.24V11.43h2.38v10.75h5.4v2.06H18z"/>
			<path class="st0" d="M27.11,13.31v-2.06h2.14v2.06H27.11z M29.24,24.24h-2.14v-9.23h2.14V24.24z"/>
			<path class="st0" d="M30.36,15.01h2.13l1.48,6.25h0.03l1.51-6.25h2.14l-2.57,9.23h-2.24L30.36,15.01z"/>
			<path class="st0" d="M40.02,19.98c0.04,1.92,0.86,2.66,1.86,2.66c1,0,1.46-0.46,2-1.1l1.55,0.99c-0.83,1.31-2.03,1.88-3.75,1.88
				c-2.32,0-3.79-1.86-3.79-4.79s1.46-4.79,3.89-4.79c2.34-0.02,3.65,2.02,3.65,4.24v0.91H40.02z M43.46,18.49
				c-0.04-1.28-0.69-2.02-1.72-2.02c-1.03,0-1.69,0.75-1.72,2.02H43.46z"/>
			<path class="st0" d="M47.08,24.24V11.43h2.38v10.75h5.4v2.06H47.08z"/>
			<path class="st0" d="M61.03,24.24l-0.14-0.8c-0.86,0.6-1.67,0.98-2.79,0.98c-1.62,0-2.43-1.19-2.43-2.45
				c0-2.09,1.65-3.19,5.13-3.62v-0.78c0-0.71-0.55-1.1-1.31-1.1c-1,0-1.55,0.55-1.96,1.14l-1.38-1.08c0.55-0.98,2.03-1.72,3.34-1.69
				c2.41,0.05,3.44,0.96,3.44,3.73v4.35c0,0.46,0.03,0.92,0.17,1.33H61.03z M60.81,19.82c-1.43,0.28-3,0.59-3,1.88
				c0,0.69,0.43,1.08,1.03,1.08c0.67,0,1.51-0.59,1.96-0.98V19.82z"/>
			<path class="st0" d="M64.74,11.43h2.13v4.44h0.04c0.43-0.59,1.45-1.03,2.17-1.03c2.31,0,3.58,2.27,3.58,4.54
				c0,2.88-1.2,5.04-3.58,5.04c-0.96,0-1.67-0.41-2.43-1.17l-0.24,0.99h-1.67V11.43z M66.87,21.82c0.45,0.36,0.74,0.82,1.65,0.82
				c1.27,0,2-1.06,2-3.02s-0.72-3.02-2-3.02c-0.69,0-1.22,0.37-1.65,0.78V21.82z"/>
			<path class="st0" d="M78.37,17.44c-0.43-0.48-1-0.98-1.67-0.98c-0.83,0-1.2,0.36-1.2,0.91c0,1.58,4.47,0.91,4.47,4.28
				c0,1.92-1.41,2.77-3.29,2.77c-1.43,0-2.6-0.66-3.39-1.86l1.43-1.1c0.5,0.71,1.17,1.33,2.08,1.33c0.76,0,1.27-0.43,1.27-1.05
				c0-1.58-4.48-1.01-4.48-4.22c0-1.72,1.41-2.68,2.96-2.68c1.19,0,2.38,0.46,3.15,1.4L78.37,17.44z"/>
		</g>
		<g>
			<path class="st0" d="M24.88,29.41h2.38v8.02c0,3.75-2.24,4.97-4.77,4.97s-4.77-1.22-4.77-4.97v-8.02h2.38v8.13
				c0,2.08,0.79,2.8,2.39,2.8c1.6,0,2.39-0.73,2.39-2.8V29.41z"/>
			<path class="st0" d="M29.27,42.22v-9.23h1.96v1.58h0.04c0.52-1.1,1.24-1.72,2.51-1.76v2.32c-0.1-0.02-0.22-0.02-0.38-0.02
				c-1.07,0-2,1.26-2,1.49v5.61H29.27z"/>
			<path class="st0" d="M34.84,29.41h2.13v4.44h0.04c0.43-0.59,1.45-1.03,2.17-1.03c2.31,0,3.58,2.27,3.58,4.54
				c0,2.88-1.2,5.04-3.58,5.04c-0.96,0-1.67-0.41-2.43-1.17l-0.24,0.99h-1.67V29.41z M36.97,39.81c0.45,0.36,0.74,0.82,1.65,0.82
				c1.27,0,2-1.06,2-3.02s-0.72-3.02-2-3.02c-0.69,0-1.22,0.37-1.65,0.78V39.81z"/>
			<path class="st0" d="M48.84,42.22l-0.14-0.8c-0.86,0.6-1.67,0.98-2.79,0.98c-1.62,0-2.43-1.19-2.43-2.45
				c0-2.09,1.65-3.19,5.13-3.62v-0.78c0-0.71-0.55-1.1-1.31-1.1c-1,0-1.55,0.55-1.96,1.14l-1.38-1.08c0.55-0.98,2.03-1.72,3.34-1.69
				c2.41,0.05,3.44,0.96,3.44,3.73v4.35c0,0.46,0.03,0.92,0.17,1.33H48.84z M48.61,37.8c-1.43,0.28-3,0.59-3,1.88
				c0,0.69,0.43,1.08,1.03,1.08c0.67,0,1.51-0.59,1.96-0.98V37.8z"/>
			<path class="st0" d="M52.54,42.22v-9.23h1.96v0.99c0.79-0.57,1.7-1.17,2.75-1.17c1.79,0,2.65,1.21,2.65,3.09v6.32h-2.14v-6
				c0-1.24-0.38-1.63-1.1-1.63c-0.93,0-1.63,0.55-2,0.98v6.66H52.54z"/>
			<path class="st0" d="M67.6,42.22V29.41h2.38v10.75h5.4v2.06H67.6z"/>
			<path class="st0" d="M76.7,31.29v-2.06h2.14v2.06H76.7z M78.83,42.22H76.7v-9.23h2.14V42.22z"/>
			<path class="st0" d="M83.37,34.77v7.45h-2.14v-7.45H80v-1.78h1.22v-1.14c0-1.99,0.77-2.63,2.53-2.63h1.41V31h-0.59
				c-0.9,0-1.2,0.28-1.2,0.99v0.99h1.81v1.78H83.37z"/>
		</g>
		<rect id="Separator_4_" y="11.33" class="st0" width="1" height="48.48"/>
	</g>
</g>
<g id="_x2F_ACADEMIC_SUPPORT" class="st2">
	<g class="st3">
		<g>
			<path class="st0" d="M25.27,42.62c-0.35-1.08-1.11-1.84-2.32-1.84c-1.63,0-2.62,1.52-2.62,4.51c-0.04,2.99,0.85,4.51,2.69,4.51
				c1.1,0,1.77-0.39,2.49-1.89l2.26,0.6c-0.76,2.21-2.42,3.34-4.76,3.34c-3.25,0-5.13-2.39-5.13-6.56c0-4.17,1.87-6.56,5.13-6.56
				c2.44,0,3.85,1.1,4.46,3.36L25.27,42.62z"/>
			<path class="st0" d="M30.81,47.43c0.04,1.91,0.88,2.65,1.91,2.65s1.5-0.46,2.05-1.1l1.59,0.99c-0.85,1.31-2.09,1.87-3.85,1.87
				c-2.39,0-3.89-1.86-3.89-4.77c0-2.92,1.5-4.78,4-4.78c2.4-0.02,3.75,2.02,3.75,4.23v0.9H30.81z M34.35,45.95
				c-0.04-1.27-0.71-2.02-1.77-2.02c-1.06,0-1.73,0.74-1.77,2.02H34.35z"/>
			<path class="st0" d="M37.85,51.68v-9.2h2.02v0.99c0.81-0.57,1.75-1.17,2.83-1.17c1.84,0,2.72,1.2,2.72,3.08v6.3h-2.19V45.7
				c0-1.24-0.39-1.63-1.13-1.63c-0.95,0-1.68,0.55-2.05,0.97v6.63H37.85z"/>
			<path class="st0" d="M47.73,42.48v-3.04h2.19v3.04h1.8v1.77h-1.8v5.2c0,0.49,0.25,0.64,0.8,0.64c0.34,0,0.69-0.11,1.01-0.18v1.8
				c-0.6,0.07-1.13,0.14-1.73,0.14c-1.63,0-2.26-0.81-2.26-2.12v-5.48h-1.27v-1.77H47.73z"/>
			<path class="st0" d="M52.92,51.68v-9.2h2.02v1.57h0.04c0.53-1.1,1.27-1.72,2.58-1.75v2.32c-0.11-0.02-0.23-0.02-0.39-0.02
				c-1.1,0-2.05,1.26-2.05,1.49v5.59H52.92z"/>
			<path class="st0" d="M60.3,47.43c0.04,1.91,0.88,2.65,1.91,2.65s1.5-0.46,2.05-1.1l1.59,0.99c-0.85,1.31-2.09,1.87-3.85,1.87
				c-2.39,0-3.89-1.86-3.89-4.77c0-2.92,1.5-4.78,4-4.78c2.4-0.02,3.75,2.02,3.75,4.23v0.9H60.3z M63.84,45.95
				c-0.04-1.27-0.71-2.02-1.77-2.02c-1.06,0-1.73,0.74-1.77,2.02H63.84z"/>
		</g>
		<g>
			<path class="st0" d="M17.72,20.05h2.28l1.61,8.61h0.04l1.82-8.61h2.51l1.68,8.61h0.04l1.75-8.61h2.28l-2.65,12.77H26.6
				l-1.86-9.09h-0.04l-1.84,9.09h-2.48L17.72,20.05z"/>
			<path class="st0" d="M34.13,28.57c0.04,1.91,0.88,2.65,1.91,2.65s1.5-0.46,2.05-1.1l1.59,0.99c-0.85,1.31-2.09,1.87-3.85,1.87
				c-2.39,0-3.89-1.86-3.89-4.77c0-2.92,1.5-4.77,4-4.77c2.4-0.02,3.75,2.02,3.75,4.23v0.9H34.13z M37.67,27.09
				c-0.04-1.27-0.71-2.02-1.77-2.02c-1.06,0-1.73,0.74-1.77,2.02H37.67z"/>
			<path class="st0" d="M42.82,28.57c0.04,1.91,0.88,2.65,1.91,2.65s1.5-0.46,2.05-1.1l1.59,0.99c-0.85,1.31-2.09,1.87-3.85,1.87
				c-2.39,0-3.89-1.86-3.89-4.77c0-2.92,1.5-4.77,4-4.77c2.4-0.02,3.75,2.02,3.75,4.23v0.9H42.82z M46.36,27.09
				c-0.04-1.27-0.71-2.02-1.77-2.02c-1.06,0-1.73,0.74-1.77,2.02H46.36z"/>
			<path class="st0" d="M55.81,32.82V20.05h2.44v5.71h-0.04l4.3-5.71h2.81l-3.63,4.79l4.21,7.98h-2.71l-3.17-6.07l-1.79,2.23v3.84
				H55.81z"/>
			<path class="st0" d="M67.21,21.92v-2.05h2.19v2.05H67.21z M69.4,32.82h-2.19v-9.2h2.19V32.82z"/>
			<path class="st0" d="M71.41,32.82v-9.2h2v0.99c0.83-0.76,1.5-1.17,2.76-1.17c0.96,0,1.86,0.46,2.26,1.34
				c0.76-0.76,1.64-1.34,3.17-1.34c0.95,0,2.26,0.57,2.26,2.76v6.61h-2.19V26.4c0-0.74-0.3-1.15-1.1-1.18
				c-0.57,0-1.33,0.51-1.84,0.99v6.61h-2.19V26.4c0-0.74-0.3-1.15-1.1-1.18c-0.57,0-1.33,0.51-1.84,0.99v6.61H71.41z"/>
		</g>
		<rect id="Separator_7_" y="11.69" class="st0" width="1" height="48.31"/>
	</g>
</g>
<g id="_x2F_LIBRARIES">
	<g>
		<g>
			<path class="st0" d="M18.2,41.01V28.13h2.46v10.8h5.6v2.07H18.2z"/>
			<path class="st0" d="M27.63,30.02v-2.07h2.21v2.07H27.63z M29.84,41.01h-2.21v-9.27h2.21V41.01z"/>
			<path class="st0" d="M31.87,28.13h2.21v4.46h0.04c0.45-0.59,1.5-1.03,2.25-1.03c2.39,0,3.71,2.28,3.71,4.56
				c0,2.89-1.25,5.06-3.71,5.06c-1,0-1.73-0.41-2.51-1.18l-0.25,1h-1.73V28.13z M34.08,38.58c0.46,0.36,0.77,0.82,1.71,0.82
				c1.32,0,2.07-1.07,2.07-3.03s-0.75-3.03-2.07-3.03c-0.71,0-1.27,0.37-1.71,0.78V38.58z"/>
			<path class="st0" d="M41.45,41.01v-9.27h2.03v1.59h0.04c0.53-1.11,1.28-1.73,2.6-1.77v2.34c-0.11-0.02-0.23-0.02-0.39-0.02
				c-1.11,0-2.07,1.27-2.07,1.5v5.63H41.45z"/>
			<path class="st0" d="M52.1,41.01l-0.14-0.8c-0.89,0.61-1.73,0.98-2.89,0.98c-1.68,0-2.51-1.19-2.51-2.46
				c0-2.1,1.71-3.21,5.31-3.64V34.3c0-0.71-0.57-1.11-1.35-1.11c-1.03,0-1.6,0.55-2.03,1.14l-1.43-1.09
				c0.57-0.98,2.1-1.73,3.46-1.69c2.5,0.05,3.57,0.96,3.57,3.74v4.37c0,0.46,0.04,0.93,0.18,1.34H52.1z M51.87,36.57
				c-1.48,0.29-3.1,0.59-3.1,1.89c0,0.7,0.45,1.09,1.07,1.09c0.69,0,1.57-0.59,2.03-0.98V36.57z"/>
			<path class="st0" d="M55.87,41.01v-9.27h2.03v1.59h0.04c0.53-1.11,1.28-1.73,2.6-1.77v2.34c-0.11-0.02-0.23-0.02-0.39-0.02
				c-1.11,0-2.07,1.27-2.07,1.5v5.63H55.87z"/>
			<path class="st0" d="M61.75,30.02v-2.07h2.21v2.07H61.75z M63.96,41.01h-2.21v-9.27h2.21V41.01z"/>
			<path class="st0" d="M67.66,36.73c0.04,1.92,0.89,2.67,1.93,2.67s1.52-0.46,2.07-1.1l1.6,1c-0.86,1.32-2.1,1.89-3.89,1.89
				c-2.41,0-3.92-1.87-3.92-4.81c0-2.94,1.52-4.81,4.03-4.81c2.42-0.02,3.78,2.03,3.78,4.26v0.91H67.66z M71.23,35.23
				c-0.04-1.28-0.71-2.03-1.78-2.03c-1.07,0-1.75,0.75-1.78,2.03H71.23z"/>
			<path class="st0" d="M79.46,34.18c-0.45-0.48-1.03-0.98-1.73-0.98c-0.86,0-1.25,0.36-1.25,0.91c0,1.59,4.63,0.91,4.63,4.3
				c0,1.92-1.46,2.78-3.4,2.78c-1.48,0-2.69-0.66-3.51-1.87l1.48-1.1c0.52,0.71,1.21,1.34,2.16,1.34c0.78,0,1.32-0.43,1.32-1.05
				c0-1.59-4.64-1.02-4.64-4.24c0-1.73,1.46-2.69,3.07-2.69c1.23,0,2.46,0.46,3.26,1.41L79.46,34.18z"/>
		</g>
		<rect id="Separator_8_" y="11.3" class="st0" width="1" height="48.7"/>
	</g>
</g>
</svg>
